<svg id="visual" viewBox="0 0 1800 500" width="1800" height="500" xmlns="http://www.w3.org/2000/svg" xmlns:xlink="http://www.w3.org/1999/xlink" version="1.1"><rect x="0" y="0" width="1800" height="500" fill="#000000"></rect><path d="M0 388L37.5 373C75 358 150 328 225 315.7C300 303.3 375 308.7 450 306.5C525 304.3 600 294.7 675 285.8C750 277 825 269 900 280.7C975 292.3 1050 323.7 1125 323C1200 322.3 1275 289.7 1350 280.3C1425 271 1500 285 1575 287.3C1650 289.7 1725 280.3 1762.5 275.7L1800 271L1800 0L1762.5 0C1725 0 1650 0 1575 0C1500 0 1425 0 1350 0C1275 0 1200 0 1125 0C1050 0 975 0 900 0C825 0 750 0 675 0C600 0 525 0 450 0C375 0 300 0 225 0C150 0 75 0 37.5 0L0 0Z" fill="#04c4f4"></path><path d="M0 236L37.5 231C75 226 150 216 225 212.2C300 208.3 375 210.7 450 196.8C525 183 600 153 675 139C750 125 825 127 900 132.3C975 137.7 1050 146.3 1125 154.8C1200 163.3 1275 171.7 1350 172.8C1425 174 1500 168 1575 170.5C1650 173 1725 184 1762.5 189.5L1800 195L1800 0L1762.5 0C1725 0 1650 0 1575 0C1500 0 1425 0 1350 0C1275 0 1200 0 1125 0C1050 0 975 0 900 0C825 0 750 0 675 0C600 0 525 0 450 0C375 0 300 0 225 0C150 0 75 0 37.5 0L0 0Z" fill="#0089ff"></path><path d="M0 122L37.5 123.3C75 124.7 150 127.3 225 127.2C300 127 375 124 450 113C525 102 600 83 675 70.5C750 58 825 52 900 64.3C975 76.7 1050 107.3 1125 109.5C1200 111.7 1275 85.3 1350 73C1425 60.7 1500 62.3 1575 78.5C1650 94.7 1725 125.3 1762.5 140.7L1800 156L1800 0L1762.5 0C1725 0 1650 0 1575 0C1500 0 1425 0 1350 0C1275 0 1200 0 1125 0C1050 0 975 0 900 0C825 0 750 0 675 0C600 0 525 0 450 0C375 0 300 0 225 0C150 0 75 0 37.5 0L0 0Z" fill="#2300ff"></path></svg>